<svg xmlns="http://www.w3.org/2000/svg" width="39" height="36" viewBox="0 0 39 36" fill="none">
  <path d="M13 34.875C13 35.4938 13.4875 36 14.0833 36H16.25C16.8458 36 17.3333 35.4938 17.3333 34.875V22.5H13V34.875ZM15.1667 15.75H11.7203L8.6599 12.5648C7.84063 11.7141 6.75052 11.25 5.59948 11.25H4.33333C3.17552 11.25 2.08542 11.7211 1.26615 12.5719C0.453646 13.4227 0 14.5547 0 15.757L0.0135417 22.5L0 33.75C0 34.9945 0.968229 36 2.1599 36C3.35156 36 4.32656 34.9945 4.32656 33.75L4.33333 26.6695C4.39427 26.7047 4.44167 26.7609 4.5026 26.7891L6.47292 29.8125V33.75C6.47292 34.9945 7.44115 36 8.63958 36C9.83802 36 10.8063 34.9945 10.8063 33.75V29.7773C10.8063 29.0813 10.6505 28.3852 10.3526 27.7664L7.56302 23.4563V17.7891L8.97813 19.2586C9.59427 19.8984 10.4068 20.25 11.2734 20.25H15.1667C16.3651 20.25 17.3333 19.2445 17.3333 18C17.3333 16.7555 16.3651 15.75 15.1667 15.75ZM4.33333 9C6.1276 9 7.58333 7.48828 7.58333 5.625C7.58333 3.76172 6.1276 2.25 4.33333 2.25C2.53906 2.25 1.08333 3.76172 1.08333 5.625C1.08333 7.48828 2.53906 9 4.33333 9ZM19.5 2.25L21.6328 17.9367L19.5406 28.807C19.2495 30.3258 20.4208 31.5 21.6667 31.5C22.6958 31.5 23.5625 30.8602 23.8536 29.3625C23.9146 30.5508 24.8422 31.5 26 31.5C27.1984 31.5 28.1667 30.4945 28.1667 29.25C28.1667 30.4945 29.1349 31.5 30.3333 31.5C31.5318 31.5 32.5 30.4945 32.5 29.25V0H19.5V2.25ZM13 2.25V13.5H17.3333V0H15.1667C13.9682 0 13 1.00547 13 2.25ZM36.8333 0H34.6667V34.875C34.6667 35.4938 35.1542 36 35.75 36H37.9167C38.5125 36 39 35.4938 39 34.875V2.25C39 1.00547 38.0318 0 36.8333 0Z" fill="#D9D9D9"/>
</svg>