<svg xmlns="http://www.w3.org/2000/svg" width="23" height="25" viewBox="0 0 23 25" fill="none">
  <path d="M22.3082 16.3131L15.3644 12.5L22.3082 8.68687C22.8842 8.37061 23.0876 7.64272 22.759 7.07373L21.8078 5.42622C21.4793 4.85723 20.7473 4.66943 20.1854 5.01006L13.4113 9.11709L13.5809 1.19697C13.595 0.540088 13.0664 0 12.4093 0H10.507C9.84993 0 9.32127 0.540088 9.33538 1.19697L9.50501 9.11709L2.73084 5.01011C2.16902 4.66948 1.43694 4.85728 1.10842 5.42627L0.157253 7.07378C-0.171263 7.64277 0.0321554 8.37065 0.608083 8.68691L7.55188 12.5L0.608034 16.3131C0.0321066 16.6294 -0.171311 17.3573 0.157253 17.9263L1.10842 19.5738C1.43694 20.1428 2.16902 20.3306 2.73084 19.9899L9.50501 15.8829L9.33533 23.803C9.32127 24.4599 9.84993 25 10.507 25H12.4094C13.0664 25 13.595 24.4599 13.581 23.803L13.4113 15.8829L20.1854 19.9899C20.7472 20.3305 21.4793 20.1427 21.8078 19.5737L22.759 17.9262C23.0875 17.3572 22.8842 16.6294 22.3082 16.3131Z" fill="#D9D9D9"/>
</svg>