<svg xmlns="http://www.w3.org/2000/svg" width="41" height="35" viewBox="0 0 41 35" fill="none">
  <path d="M39.1143 24.1616C39.2809 23.0598 39.2809 21.9346 39.1143 20.8328L40.7673 19.6685C40.9595 19.5356 41.0428 19.2621 40.9787 19.0042C40.5494 17.3164 39.8126 15.7848 38.8516 14.5189C38.7042 14.3235 38.4672 14.2766 38.275 14.4095L36.622 15.5738C35.9236 14.8471 35.1228 14.2844 34.2578 13.9094V11.5807C34.2578 11.315 34.1041 11.0806 33.8926 11.0259C32.4639 10.6352 31.0095 10.6508 29.6513 11.0259C29.4398 11.0806 29.2861 11.315 29.2861 11.5807V13.9094C28.4211 14.2844 27.6203 14.8471 26.9219 15.5738L25.2689 14.4095C25.0831 14.2766 24.8397 14.3235 24.6923 14.5189C23.7313 15.7848 22.9945 17.3164 22.5652 19.0042C22.5011 19.2621 22.5908 19.5356 22.7766 19.6685L24.4296 20.8328C24.263 21.9346 24.263 23.0598 24.4296 24.1616L22.7766 25.326C22.5844 25.4588 22.5011 25.7323 22.5652 25.9902C22.9945 27.6781 23.7313 29.2018 24.6923 30.4756C24.8397 30.6709 25.0767 30.7178 25.2689 30.585L26.9219 29.4206C27.6203 30.1474 28.4211 30.71 29.2861 31.0851V33.4137C29.2861 33.6794 29.4398 33.9138 29.6513 33.9685C31.08 34.3592 32.5344 34.3436 33.8926 33.9685C34.1041 33.9138 34.2578 33.6794 34.2578 33.4137V31.0851C35.1228 30.71 35.9236 30.1474 36.622 29.4206L38.275 30.585C38.4608 30.7178 38.7042 30.6709 38.8516 30.4756C39.8126 29.2096 40.5494 27.6781 40.9787 25.9902C41.0428 25.7323 40.9531 25.4588 40.7673 25.326L39.1143 24.1616ZM31.7784 26.2871C30.0613 26.2871 28.671 24.5836 28.671 22.4972C28.671 20.4108 30.0677 18.7073 31.7784 18.7073C33.489 18.7073 34.8857 20.4108 34.8857 22.4972C34.8857 24.5836 33.4954 26.2871 31.7784 26.2871ZM6.15065 14.9955C8.41229 14.9955 10.2511 12.7528 10.2511 9.99442C10.2511 7.23599 8.41229 4.9933 6.15065 4.9933C3.889 4.9933 2.05022 7.23599 2.05022 9.99442C2.05022 12.7528 3.889 14.9955 6.15065 14.9955ZM20.5022 17.4961C20.6239 17.4961 20.7392 17.457 20.861 17.4492C21.3927 15.7535 22.1744 14.1594 23.1867 12.8232C23.6608 12.198 24.3335 11.8386 25.0383 11.8386C25.4803 11.8386 25.916 11.9792 26.294 12.2527L26.8002 12.6122C26.8514 12.5731 26.9027 12.5419 26.9539 12.5028C27.4024 11.3619 27.6715 10.096 27.6715 8.75195C27.6715 3.91494 24.4616 0 20.4958 0C16.5299 0 13.3264 3.90712 13.3264 8.74414C13.3264 13.5812 16.5363 17.4961 20.5022 17.4961ZM27.2422 32.6948C27.0949 32.601 26.9475 32.4916 26.8066 32.39C26.2812 32.7651 25.8263 33.1558 25.0447 33.1558C24.3463 33.1558 23.6736 32.7964 23.1931 32.1712C22.0206 30.624 21.1236 28.7408 20.6175 26.7325C19.9319 24.0366 22.2128 22.8488 22.2705 22.802C22.2641 22.5988 22.2641 22.3956 22.2705 22.1925L21.7643 21.833C21.5209 21.6611 21.3158 21.4423 21.1364 21.2C20.925 21.2157 20.72 21.2469 20.5086 21.2469C18.9325 21.2469 17.4589 20.7781 16.1198 19.9967H15.5881C11.5068 19.9967 8.20086 24.0288 8.20086 28.9987V31.2492C8.20086 33.3199 9.57835 35 11.2762 35H27.6395C27.4024 34.5311 27.2422 33.9998 27.2422 33.4137V32.6948ZM11.0904 18.9495C10.3472 18.0509 9.32848 17.4961 8.20086 17.4961H4.10043C1.83879 17.4961 0 19.7388 0 22.4972V24.9978C0 26.3809 0.91619 27.4983 2.05022 27.4983H6.27238C6.67602 23.7944 8.5084 20.6765 11.0904 18.9495Z" fill="#D9D9D9"/>
</svg>