<svg xmlns="http://www.w3.org/2000/svg" width="25" height="23" viewBox="0 0 25 23" fill="none">
  <path d="M9.46918 18.4089C9.34115 18.1519 9.11806 18.1259 9.02778 18.1259C8.9375 18.1259 8.71441 18.1515 8.59288 18.3945L8.25998 19.0603C7.98351 19.615 7.17361 19.5538 6.98047 18.9696L6.25 16.7791L5.7895 18.1628C5.53385 18.9293 4.81814 19.4444 4.00998 19.4444H3.47222C3.08854 19.4444 2.77778 19.1337 2.77778 18.75C2.77778 18.3663 3.08854 18.0556 3.47222 18.0556H4.00998C4.21962 18.0556 4.40538 17.9219 4.47179 17.7231L5.26128 15.3516C5.40451 14.9258 5.80122 14.6393 6.25 14.6393C6.69878 14.6393 7.09549 14.9253 7.23828 15.3516L7.84071 17.1589C8.69792 16.4562 10.1871 16.7378 10.7053 17.7734C10.7873 17.9375 10.9436 18.0317 11.1115 18.0451V14.4809L16.6671 8.96484V6.94444H10.7639C10.191 6.94444 9.72222 6.47569 9.72222 5.90278V0H1.04167C0.46441 0 0 0.46441 0 1.04167V21.1806C0 21.7578 0.46441 22.2222 1.04167 22.2222H15.625C16.2023 22.2222 16.6667 21.7578 16.6667 21.1806V19.4444L11.1111 19.4397C10.4115 19.4262 9.78385 19.0369 9.46918 18.4089ZM16.6667 5.2908C16.6667 5.01736 16.5582 4.7526 16.3628 4.55729L12.1137 0.303819C11.9184 0.108507 11.6536 0 11.3759 0H11.1111V5.55556H16.6667V5.2908ZM12.5 15.059V18.0556H15.4944L22.5117 10.9905L19.5655 8.04427L12.5 15.059ZM24.6762 7.26259L23.293 5.87934C22.8615 5.44792 22.1615 5.44792 21.73 5.87934L20.5473 7.06207L23.4935 10.0082L24.6762 8.82552C25.1081 8.3941 25.1081 7.69401 24.6762 7.26259Z" fill="#D9D9D9"/>
</svg>